<svg width="75" height="50" xmlns="http://www.w3.org/2000/svg" fill="none">
    <mask height="20" width="10" y="4" x="4" maskUnits="userSpaceOnUse" id="mask0_878_83783">
        <path id="svg_1" fill="white" d="m13.9229,4.50586l-8.95057,0l0,18.84604l8.95057,0l0,-18.84604z"/>
    </mask>
    <mask height="19" width="16" y="5" x="20" maskUnits="userSpaceOnUse" id="mask1_878_83783">
        <path id="svg_2" fill="white" d="m20.8857,5.99414l14.4203,0l0,17.85416l-14.4203,0l0,-17.85416z"/>
    </mask>
    <g>
        <title>Layer 1</title>
        <g stroke="null" id="svg_23">
            <path stroke="null" id="svg_3" fill="#F1F1F1" d="m36.51617,53.56123c20.16742,0 36.51617,-1.40714 36.51617,-3.14271c0,-1.73575 -16.34875,-3.14289 -36.51617,-3.14289c-20.16733,0 -36.51617,1.40714 -36.51617,3.14289c0,1.73557 16.34884,3.14271 36.51617,3.14271z"/>
            <g stroke="null" id="svg_4" mask="url(#mask0_878_83783)">
                <path stroke="null" id="svg_5" fill="white" d="m15.73691,14.20183c0.07125,0 0.14023,0.00299 0.21035,0.00896c0.29655,0.02687 0.54712,0.203 0.63677,0.44981l2.26324,6.26345c2.89432,-0.00996 4.89875,-0.09156 5.65401,-0.12838c0.02297,-0.001 0.04481,-0.00199 0.06779,-0.00199c0.52535,0 0.99666,0.29955 1.17479,0.74537l0.41727,1.04887c0.09999,0.25078 0.06308,0.52346 -0.09999,0.74737c-0.10808,0.14727 -0.26211,0.25872 -0.44024,0.32341l-1.98861,22.58095c-0.02994,0.33332 -0.22068,0.63984 -0.52403,0.8399c-0.32312,0.21382 -0.88971,0.52342 -1.75757,0.78414c-1.03338,0.31141 -2.2253,0.47472 -3.54252,0.48558c-0.0023,0 -0.00459,0 -0.00689,0c-0.0023,0 -0.00459,0 -0.00689,0c-1.31725,-0.01086 -2.5092,-0.17417 -3.54254,-0.48558c-0.86781,-0.26072 -1.43449,-0.57031 -1.75748,-0.78414c-0.30344,-0.20006 -0.49424,-0.50658 -0.52413,-0.8399l-1.99656,-22.67251c-0.1747,-0.08359 -0.32414,-0.20797 -0.43333,-0.36422c-0.20231,-0.28858 -0.23449,-0.64685 -0.0862,-0.9603l0.35976,-0.76527c0.21035,-0.44781 0.6954,-0.73741 1.23448,-0.73741c0.02414,0 0.04943,0 0.07357,0.00199c0.77356,0.03782 2.65978,0.12341 4.91494,0.1622l-2.00919,-5.56187c-0.09541,-0.2637 0.01378,-0.5513 0.27126,-0.7145c0.15173,-0.09654 0.33103,-0.18411 0.51609,-0.25476c0.02414,-0.00896 0.04828,-0.01693 0.07357,-0.02388l0.33103,-0.09156c0.02759,-0.00797 0.05632,-0.01394 0.08507,-0.0189c0.14597,-0.02488 0.29079,-0.03683 0.43218,-0.03683z" clip-rule="evenodd" fill-rule="evenodd"/>
            </g>
            <path stroke="null" id="svg_6" fill="#D3D1D0" d="m25.03812,21.74778l0.41727,1.04887c0.05046,0.12639 -0.03691,0.26372 -0.17813,0.27665c-0.81966,0.07764 -3.40009,0.28959 -7.0564,0.28959c-3.43447,0 -6.49885,-0.21992 -7.73447,-0.32242c-0.28392,-0.0239 -0.45747,-0.3075 -0.34138,-0.55531l0.35978,-0.76625c0.10113,-0.21297 0.32873,-0.34632 0.5747,-0.33437c1.05518,0.05274 4.0184,0.18509 7.22069,0.18509c3.19663,0 5.41158,-0.09056 6.24367,-0.13036c0.2173,-0.01095 0.41727,0.11444 0.49428,0.3085z" clip-rule="evenodd" fill-rule="evenodd"/>
            <path stroke="null" id="svg_7" fill="#E9E5E3" d="m24.35384,29.51132c0,0 -1.41619,-2.31475 -3.53114,-2.85212c0.06327,-0.94636 0.16683,-2.49381 0.18058,-2.70977c1.85982,-0.05672 3.14476,-0.14629 3.85972,-0.207l-1.06784,12.1298l-0.9091,10.31872c-0.0128,0.14828 -0.0966,0.28552 -0.23217,0.37623c-0.52309,0.34527 -2.04378,1.13936 -4.98399,1.13936c-0.68506,0 -1.28391,-0.04472 -1.80574,-0.1175c0,-0.1472 0.00459,-0.33133 0.00345,-0.46458c2.42642,0.22487 3.68163,-0.3364 3.73454,-1.02512c0.05743,-0.73833 0.66318,-10.93954 1.09533,-17.5494c1.58396,1.3932 2.92181,6.53418 3.00353,8.29364l0.65283,-7.33226z" clip-rule="evenodd" fill-rule="evenodd"/>
            <path stroke="null" id="svg_8" fill="#FFBC0D" d="m19.91944,28.19362c-1.90235,0 -3.52647,6.26043 -3.77821,10.7565c-0.26552,4.74792 -0.27356,8.15514 -0.27356,8.63783c-1.79999,-0.31738 -2.68966,-0.88172 -3.00229,-1.12452c-0.08737,-0.06663 -0.14024,-0.16023 -0.14828,-0.26072l-1.64252,-19.12963c1.06552,0.75825 2.77701,6.35892 2.77701,6.35892c1.4839,-4.57972 3.51838,-6.88542 6.1057,-6.88542c2.5874,0 4.39995,2.96455 4.39995,2.96455l-0.65283,7.33135c-0.09415,-2.04318 -1.88279,-8.64887 -3.78497,-8.64887z" clip-rule="evenodd" fill-rule="evenodd"/>
            <path stroke="null" id="svg_9" fill="#EAEAEA" d="m19.57579,6.40912c-0.22389,1.33302 -0.29657,2.00351 -0.21843,2.01147c0.07833,0.00795 0.68917,-0.01608 1.83232,-0.0721l0.22953,-2.11504l-1.84343,0.17566z" clip-rule="evenodd" fill-rule="evenodd"/>
            <path stroke="null" id="svg_10" fill="#EAEAEA" d="m19.2265,9.61289c-0.22389,1.33302 -0.29676,2.00351 -0.21843,2.01147c0.07833,0.00797 0.68898,-0.01608 1.83232,-0.0721l0.22953,-2.11504l-1.84343,0.17566z" clip-rule="evenodd" fill-rule="evenodd"/>
            <path stroke="null" id="svg_11" fill="#EAEAEA" d="m18.8789,12.81314c-0.22389,1.33302 -0.29666,2.00351 -0.21841,2.01147c0.07828,0.00795 0.68896,-0.01608 1.8323,-0.0721l0.22953,-2.11504l-1.84343,0.17566z" clip-rule="evenodd" fill-rule="evenodd"/>
            <path stroke="null" id="svg_12" fill="#EAEAEA" d="m18.52765,16.01691c-0.22385,1.33302 -0.29664,2.00351 -0.21837,2.01147c0.07828,0.00797 0.689,-0.01608 1.83234,-0.0721l0.22953,-2.11504l-1.84351,0.17566z" clip-rule="evenodd" fill-rule="evenodd"/>
            <path stroke="null" id="svg_13" fill="#EAEAEA" d="m18.18011,19.21716c-0.22385,1.33302 -0.29664,2.00351 -0.21837,2.01146c0.07828,0.00797 0.68904,-0.01606 1.83229,-0.0721l0.22953,-2.11504l-1.84345,0.17568z" clip-rule="evenodd" fill-rule="evenodd"/>
            <g stroke="null" id="svg_14" mask="url(#mask1_878_83783)">
                <path stroke="null" id="svg_15" fill="white" d="m50.02257,16.89639c-1.03413,0 -2.14848,0.92016 -2.49024,1.27439c-0.23066,0.23935 -0.53175,0.6138 -0.48072,1.09567c0.04858,0.46912 0.0917,0.88506 0.12785,1.25951c-0.47752,0.10637 -0.97067,0.32551 -1.39284,0.58719c-0.00339,-0.01381 -0.00678,-0.02658 -0.01017,-0.04041c-0.14593,-0.6138 -0.77955,-0.82124 -1.36214,-0.9691c-0.29525,-0.07447 -0.88481,-0.19999 -1.50243,-0.19999c-0.29864,0 -0.57129,0.03085 -0.81006,0.09044c-0.53514,0.13403 -0.8577,0.64571 -0.72758,1.15099c0.06911,0.26913 0.14028,0.53934 0.21052,0.80847c0.00113,0.00105 0.00113,0.00105 0.00113,0.00212c-1.17102,0.54146 -2.05357,2.0286 -2.06261,2.04455c-0.08699,0.15431 -0.29186,0.51587 -0.14367,0.94044c0.33159,0.95306 0.67429,1.72326 1.03639,2.53817c0.02373,0.05106 0.04632,0.10302 0.06911,0.15516l-0.35306,0.37659c-0.19809,0.21074 -0.28734,0.49355 -0.24441,0.77237c0.29525,1.91046 1.88034,11.79067 4.02882,18.67537c0.05781,0.18304 0.17097,0.34581 0.32707,0.46711l1.37909,1.07545c0.18566,0.14466 0.41633,0.22125 0.65057,0.22125c0.11656,0 0.23424,-0.01919 0.34854,-0.05848c1.79768,-0.61594 3.18487,-1.02023 5.97016,-1.02023c2.78662,0 4.1738,0.40429 5.97148,1.02023c0.1143,0.03929 0.23198,0.05848 0.34854,0.05848c0.23424,0 0.46491,-0.07659 0.65057,-0.22125l1.37909,-1.07545c0.1561,-0.12131 0.26927,-0.28407 0.32707,-0.46711c2.14848,-6.88361 3.73356,-16.7649 4.02882,-18.67537c0.04067,-0.26597 -0.03747,-0.53519 -0.2173,-0.7425l-0.36436,-0.42022c0.03069,-0.08944 0.0612,-0.17653 0.0917,-0.26488c0.59747,-1.72326 1.16198,-3.35086 1.64384,-5.22736c0.12785,-0.49252 -0.17756,-0.99354 -0.6935,-1.14141c-0.33592,-0.09469 -0.724,-0.14361 -1.15276,-0.14361c-0.64718,0 -2.1803,0.10744 -2.4473,1.09886c-0.00904,0.03299 -0.01695,0.06489 -0.02599,0.09574c-0.17192,-0.04999 -0.35532,-0.09149 -0.5487,-0.12446c0.03163,-0.1819 0.0644,-0.3702 0.09961,-0.56593c0.09038,-0.50847 -0.26475,-0.99461 -0.80328,-1.09674c-0.29318,-0.05531 -0.59747,-0.08403 -0.90515,-0.08403c-0.47978,0 -0.91644,0.06701 -1.29323,0.1936c-0.02486,-0.31061 -0.05197,-0.63826 -0.08266,-0.99036c-0.04406,-0.49998 -0.48976,-0.87761 -1.01361,-0.87761c-0.02711,0 -0.05555,0.00107 -0.08266,0.00319c-1.34407,0.1 -2.8544,0.72443 -3.19955,1.89031c-0.0305,0.10639 -0.04293,0.21594 -0.03389,0.32551l0.0113,0.15531c0.00113,0.00532 0.00113,0.01171 0.00226,0.01702c-0.07908,0.01809 -0.1561,0.03831 -0.23198,0.05958c0.03295,-0.28936 0.07023,-0.59465 0.10978,-0.91379c0.06911,-0.56273 -0.30768,-1.08503 -1.1505,-1.5967c-0.28075,-0.17021 -1.01718,-0.57551 -1.79222,-0.6723c-0.02824,-0.00425 -0.05649,-0.00639 -0.08492,-0.00744c-0.05084,-0.42125 -0.39015,-0.7606 -0.83491,-0.834c-0.08812,-0.0149 -0.18095,-0.02234 -0.27491,-0.02234z" clip-rule="evenodd" fill-rule="evenodd"/>
            </g>
            <path stroke="null" id="svg_16" fill="#DB0007" d="m46.2715,48.26255c1.963,-0.67225 3.42928,-1.07744 6.31983,-1.07744c2.89074,0 4.35702,0.4052 6.32002,1.07744l1.37909,-1.07545c2.12023,-6.79634 3.68385,-16.51179 3.99831,-18.54356l-2.81938,0c-0.50803,1.26266 -2.8851,6.23055 -8.87804,6.23055c-5.99276,0 -8.36983,-4.96789 -8.87785,-6.23055l-2.81938,0c0.31446,2.03177 1.87808,11.7483 3.99831,18.54356l1.37909,1.07545z" clip-rule="evenodd" fill-rule="evenodd"/>
            <path stroke="null" id="svg_17" fill="#FFBC0D" d="m41.67026,27.82029l2.2639,0c0.15271,0 0.2896,0.09143 0.33705,0.22867c0.21955,0.61377 2.3138,6.00188 8.29093,6.00188c5.97694,0 8.07006,-5.38812 8.28961,-6.00188c0.04858,-0.13724 0.18434,-0.22867 0.33705,-0.22867l2.38724,0c0.69576,-2.01801 1.34407,-3.80827 1.88599,-5.91665c-0.83717,-0.23828 -2.2366,-0.02553 -2.317,0.27444c-0.13802,0.51274 -0.22294,0.77762 -0.37113,1.28611c-0.38017,-0.39679 -1.07367,-0.59997 -1.83854,-0.66912c-0.2092,1.80303 -0.41859,2.46477 -0.92096,4.29974c0.09961,-2.28072 0.24215,-3.54553 0.663,-5.90497c-0.86316,-0.16382 -1.98767,-0.02978 -2.33508,0.55636c-0.22859,1.34779 -0.3508,2.09456 -0.43553,3.26687c-0.08605,-2.12545 -0.12898,-3.35517 -0.32368,-5.56354c-1.09401,0.08298 -2.11119,0.55847 -2.29893,1.19353c0.0226,0.28936 0.06101,0.78613 0.0804,1.07442c-0.75357,-0.01597 -1.56814,0.28934 -1.86339,0.51167c-0.33611,1.57756 -0.34515,2.51469 -0.8078,4.12732c0,0 -0.18679,-1.24564 0.45474,-6.43782c0.03841,-0.3117 -1.19249,-1.09995 -2.06581,-1.20952c-0.19583,1.51162 -0.36775,3.02111 -0.51932,4.52953c-0.08605,-1.77969 -0.23198,-3.56894 -0.4425,-5.37628c-0.66413,-0.11064 -2.08728,1.00312 -2.05564,1.31162c0.37226,3.56257 0.37904,4.12741 0.39938,6.5124c-0.33837,-2.16479 -0.47978,-2.96366 -0.78972,-4.26679c-0.87238,0.06063 -2.11684,0.93611 -2.05226,1.23929c0.30768,1.45843 0.36869,2.09671 0.4683,4.00609c-0.43553,-2.31041 -0.74792,-3.04338 -1.30679,-5.38153c-0.03389,-0.14254 -1.56795,-0.57656 -2.42,-0.36381c0.473,1.82968 0.99911,3.66359 1.20605,5.46561c-0.48524,-1.18499 -0.93565,-2.39453 -1.3452,-3.64018c-0.84734,0.22764 -1.92553,1.7605 -1.87695,1.89882c0.40955,1.17431 0.83152,2.05313 1.3226,3.17638z" clip-rule="evenodd" fill-rule="evenodd"/>
            <path stroke="null" id="svg_18" fill="#FFBC0D" d="m54.58973,36.91111c-0.81232,0 -1.53745,1.01806 -2.01158,2.61059c-0.47395,-1.59254 -1.19927,-2.61059 -2.01271,-2.61059c-1.42786,0 -2.58627,3.38821 -2.58627,7.56654l1.14937,0c0,-3.88049 0.64379,-7.0261 1.4369,-7.0261c0.79424,0 1.43803,2.90408 1.43803,6.48584l1.14937,0c0,-3.58176 0.64266,-6.48584 1.4369,-6.48584c0.79424,0 1.4369,3.1456 1.4369,7.0261l1.14956,0c0,-4.17833 -1.15747,-7.56654 -2.58646,-7.56654z" clip-rule="evenodd" fill-rule="evenodd"/>
            <path stroke="white" id="svg_19" stroke-width="1.29545" fill="#C5945E" d="m41.24263,29.46751c0.35419,0 0.66639,0.22469 0.76731,0.55239l2.90167,9.414c0.12616,0.40918 -0.11524,0.83936 -0.53891,0.96103c-0.07419,0.02136 -0.15101,0.03205 -0.2284,0.03205l-0.11693,-0.00163l-2.01573,6.45144c-0.08511,0.27176 -0.3154,0.472 -0.59408,0.53121l-0.17229,0.01811l-14.78456,0c-0.33046,0 -0.62684,-0.19608 -0.74641,-0.49337l-2.62148,-6.52494c-0.35626,-0.07821 -0.62214,-0.38582 -0.62214,-0.75354c0,-0.07115 0.01017,-0.14213 0.03032,-0.21074l2.7659,-9.41418c0.09754,-0.33241 0.41218,-0.56181 0.77014,-0.56181l15.20559,0z" clip-rule="evenodd" fill-rule="evenodd"/>
            <path stroke="null" id="svg_20" fill="#AD8458" d="m23.33308,39.87439l20.3593,0l-0.50878,1.9168l-18.95855,0l-0.89197,-1.9168z" clip-rule="evenodd" fill-rule="evenodd"/>
            <path stroke="null" id="svg_21" fill="#FFBC0D" d="m40.25539,33.02844c-0.56301,0 -1.06558,0.74431 -1.39416,1.90847c-0.32858,-1.16417 -0.83133,-1.90847 -1.3951,-1.90847c-0.9895,0 -1.79259,2.4768 -1.79259,5.53151l0.79669,0c0,-2.83691 0.44627,-5.13645 0.99591,-5.13645c0.55058,0 0.99666,2.12302 0.99666,4.7414l0.79669,0c0,-2.61838 0.44551,-4.7414 0.99591,-4.7414c0.55058,0 0.99591,2.29955 0.99591,5.13645l0.79669,0c0,-3.05471 -0.80215,-5.53151 -1.79259,-5.53151z" clip-rule="evenodd" fill-rule="evenodd"/>
            <path stroke="null" id="svg_22" fill="#DB0007" d="m2.80893,50.11363c-0.5171,0 -0.93631,-0.40447 -0.93631,-0.90363l0,-2.68808l0.08662,0l0.00233,-0.02933c-1.11244,-0.17363 -1.96157,-1.09953 -1.96157,-2.21536c0,-1.23985 1.04801,-2.24487 2.34078,-2.24487c1.13613,0 2.08321,0.77617 2.29604,1.80582c0.09368,0.12131 0.17973,0.24225 0.25652,0.36428c0.36259,0.57611 0.64571,1.4323 0.71052,2.31982l62.76322,0.00036c0.07532,-0.8877 0.40484,-1.7439 0.82663,-2.32019c0.25703,-0.35106 0.60293,-0.69253 1.03808,-1.02476l0.34289,-0.2475l0.04519,0.03531c0.42612,-0.5819 1.13129,-0.96229 1.92911,-0.96229c1.30114,0 2.35598,1.01154 2.35598,2.25935c0,1.24781 -1.05484,2.25935 -2.35598,2.25935c-0.19093,0 -0.37678,-0.02173 -0.55454,-0.06283l-0.00603,0.06283l0.10752,0l0,2.68808c0,0.49916 -0.41915,0.90363 -0.93622,0.90363l-68.3508,0z" clip-rule="evenodd" fill-rule="evenodd"/>
        </g>
    </g>
</svg>